<?xml version="1.0" encoding="utf-8"?>
<!-- Generator: Adobe Illustrator 24.1.1, SVG Export Plug-In . SVG Version: 6.00 Build 0)  -->
<svg version="1.1" id="Layer_1" xmlns="http://www.w3.org/2000/svg" xmlns:xlink="http://www.w3.org/1999/xlink" x="0px" y="0px"
	 viewBox="0 0 512 512" style="enable-background:new 0 0 512 512;" xml:space="preserve">
<style type="text/css">
	.st0{fill:url(#SVGID_1_);}
	.st1{fill:url(#SVGID_2_);}
	.st2{fill:url(#SVGID_3_);}
	.st3{fill:url(#SVGID_4_);}
	.st4{fill:url(#SVGID_5_);}
	.st5{fill:url(#SVGID_6_);}
	.st6{fill:url(#SVGID_7_);}
	.st7{fill:url(#SVGID_8_);}
	.st8{fill:url(#SVGID_9_);}
	.st9{fill:url(#SVGID_10_);}
	.st10{fill:url(#SVGID_11_);}
	.st11{fill:url(#SVGID_12_);}
	.st12{fill:url(#SVGID_13_);}
	.st13{fill:url(#SVGID_14_);}
	.st14{fill:url(#SVGID_15_);}
	.st15{fill:url(#SVGID_16_);}
	.st16{fill:url(#SVGID_17_);}
	.st17{fill:url(#SVGID_18_);}
	.st18{fill:url(#SVGID_19_);}
	.st19{fill:url(#SVGID_20_);}
	.st20{fill:url(#SVGID_21_);}
	.st21{fill:url(#SVGID_22_);}
	.st22{fill:url(#SVGID_23_);}
	.st23{fill:url(#SVGID_24_);}
</style>
<g>
	
		<linearGradient id="SVGID_1_" gradientUnits="userSpaceOnUse" x1="-14.949" y1="500.226" x2="-12.9488" y2="500.226" gradientTransform="matrix(-5.8856 8.3099 -5.5206 -8.8594 2731.5615 4740.7065)">
		<stop  offset="0" style="stop-color:#B1278F"/>
		<stop  offset="0.48" style="stop-color:#AF278E"/>
		<stop  offset="0.65" style="stop-color:#A8258A"/>
		<stop  offset="0.76" style="stop-color:#9E2383"/>
		<stop  offset="1" style="stop-color:#9E2383"/>
	</linearGradient>
	<path class="st0" d="M48.6,178.1c-3.6-0.8-7.8-2.4-10.8-4.4c4.8,4.4,24.1,34.7,27.1,40.8C65.6,208.3,59,188.6,48.6,178.1z"/>
	
		<linearGradient id="SVGID_2_" gradientUnits="userSpaceOnUse" x1="-7.1686" y1="508.6586" x2="-5.1683" y2="508.6586" gradientTransform="matrix(-18.031 25.4666 -9.6569 -47.5502 4857.9243 24546.6016)">
		<stop  offset="0" style="stop-color:#EC178D"/>
		<stop  offset="0.47" style="stop-color:#EA178D"/>
		<stop  offset="0.64" style="stop-color:#E3188C"/>
		<stop  offset="0.76" style="stop-color:#D81A8A"/>
		<stop  offset="0.86" style="stop-color:#C71D88"/>
		<stop  offset="0.95" style="stop-color:#B12085"/>
		<stop  offset="1" style="stop-color:#9E2383"/>
	</linearGradient>
	<path class="st1" d="M67.9,248.4c0,0,6.2-28.5,2-47c-4.2-18.5-14.7-38.1-14.7-38.3c0,0,1,9.8-2.4,11c-3.4,1.2-13.7-7-13.7-7
		s14.5,15.7,20.5,29.5c5.2,11.8,6.6,18.7,4.4,33.3c-2.2,14.5-2.6,14.1-2.6,14.1L67.9,248.4z"/>
	
		<radialGradient id="SVGID_3_" cx="1.2903" cy="512.4634" r="2.0002" gradientTransform="matrix(139.5158 0 0 259.6212 -67.9492 -132581.1563)" gradientUnits="userSpaceOnUse">
		<stop  offset="0" style="stop-color:#EC178D"/>
		<stop  offset="0.24" style="stop-color:#CB1C8C"/>
		<stop  offset="0.77" style="stop-color:#772888"/>
		<stop  offset="1" style="stop-color:#512E87"/>
	</radialGradient>
	<path class="st2" d="M29.3,140.8c-2,3-3.6,6-5,9.2c-7,13.1-13,26.7-17.7,40.8c-26.9,85.3,31.5,252.8,115.8,250.5
		c9.6-0.2,18.3,7.6,15.5,20.3c-1,4.8-1.6,9.6-2,14.5c-1.2,6.6,1,13.1,5.6,17.9c6.4,6.8,15.1,12.8,25.9,11.8c6.8-0.6,9-2.2,14.7-6.4
		c4.8-3.4,8.6-7.8,13.3-11.4c0.4-0.4,1-0.6,1.4-1c-13.9-10.6-11.6-23.9-5.2-45.4c-2.6-2.2-4.8-4.4-7-6.8c-2.4-2.6-4.4-5.4-6.6-8.2
		c-1.8-2.2-4.2-4.2-5.8-6.4c-4.4-6.4-4.2-15.3-4.2-23.1c0.2-8.2,1.6-16.5,0-24.5c-1.4-6.8-4-13.3-7.2-19.5
		c-6.2-12.2-14.7-22.9-25.1-31.7c-10.6-9-21.1-17.9-31.5-27.3c-8.4-7.6-15.5-14.7-20.1-25.3c-3.2-7.2-5.8-14.5-7.8-22.1
		c-1.6-6-2.6-12.2-4.6-17.9c-1.6-4.4-3.6-8.8-6-13c-3.8-7-7-14.5-11.2-21.3c-4.4-7.6-9.8-15.7-17.3-20.9c2.4-2.8,3.4-6.4,3-10.2
		c-0.2-2.6-0.8-7.6-4.2-8c0.8-2.6,1.6-5.4,2-8c0.8-2.8,0-5.8-2.4-7.6c-2-0.4-4-0.6-6-0.4C29.9,140,29.5,140.4,29.3,140.8z
		 M177.8,474.7c2.6,2.4,2.8,6.6,0.6,9.2c-1.8,3-5.6,3.8-8.6,2c0,0-0.2,0-0.2-0.2c-2.6-2.4-2.8-6.6-0.6-9.2c1.8-3,5.6-3.8,8.6-2
		C177.6,474.7,177.6,474.7,177.8,474.7z"/>
	
		<radialGradient id="SVGID_4_" cx="9.5323" cy="518.8292" r="2.0002" gradientTransform="matrix(24.0573 0 0 19.7865 -18.6507 -9770.9961)" gradientUnits="userSpaceOnUse">
		<stop  offset="0" style="stop-color:#BA258E"/>
		<stop  offset="0.23" style="stop-color:#B5258D"/>
		<stop  offset="0.51" style="stop-color:#A5278B"/>
		<stop  offset="0.83" style="stop-color:#8B2987"/>
		<stop  offset="1" style="stop-color:#7A2A85"/>
	</radialGradient>
	<path class="st3" d="M198.8,486.3c8-3.4,16.5-2.4,24.3-0.8c6.8,1.4,13.3,3.4,19.9,5.8c10-11,1.2-26.5-7.6-31.1
		c-8.8-4.6-19.1-6.6-29.1-9.4c-4.8-1.4-9.2-5-13-8C187.3,464,185.1,476.3,198.8,486.3z"/>
	
		<radialGradient id="SVGID_5_" cx="7.6615" cy="513.5967" r="2.0002" gradientTransform="matrix(16.5511 0 0 25.7178 -121.1433 -12901.8516)" gradientUnits="userSpaceOnUse">
		<stop  offset="0" style="stop-color:#E21A8D"/>
		<stop  offset="9.000000e-02" style="stop-color:#E21A8D"/>
		<stop  offset="1" style="stop-color:#952584"/>
	</radialGradient>
	<path class="st4" d="M30.1,319.3c-0.4-6,5.2-3,9.4,0c-5.4-4.8-13.7-13.3-10.6-18.5c2.4-3.6,6-2,9,0.4c-4-4.8-8-11.4-6-16.1
		c-6.8-5.8-13.7-10.2-17.5-8.6c-3.6,1.6,2.6,10.6,10.6,19.7c-5.6-4.6-10.8-7.4-13.4-4.8c-4,4.2,8,18.3,18.5,29.3
		C30.3,320.3,30.1,319.9,30.1,319.3z"/>
	
		<radialGradient id="SVGID_6_" cx="13.2011" cy="514.1088" r="2.0002" gradientTransform="matrix(10.06 0 0 12.1041 -115.1475 -5947.2139)" gradientUnits="userSpaceOnUse">
		<stop  offset="0" style="stop-color:#E21A8D"/>
		<stop  offset="9.000000e-02" style="stop-color:#E21A8D"/>
		<stop  offset="1" style="stop-color:#952584"/>
	</radialGradient>
	<path class="st5" d="M17.1,257.7c-3.6,3.8,5.6,15.9,15.3,26.7c2-3,5.6-0.6,9,2.6c-5.2-6.8-10.8-15.5-6.8-18.1
		c0.2-0.2,0.4-0.2,0.8-0.4C28.1,260.9,20.3,254.4,17.1,257.7z"/>
	
		<radialGradient id="SVGID_7_" cx="12.1355" cy="515.8476" r="2.0002" gradientTransform="matrix(11.0771 0 0 14.8275 -113.5249 -7310.0322)" gradientUnits="userSpaceOnUse">
		<stop  offset="0" style="stop-color:#E21A8D"/>
		<stop  offset="9.000000e-02" style="stop-color:#E21A8D"/>
		<stop  offset="1" style="stop-color:#952584"/>
	</radialGradient>
	<path class="st6" d="M33.9,336.7c-0.6-2.8,0.2-3.8,1.6-4.2c2.4,0,4.8,0.6,6.8,2c-3.4-2-9.8-6.6-11.6-12.4
		c-5.6-4.2-10.8-6.6-11.4-1.2c-1.2,11.6,25.9,31.9,25.9,31.9l0.2-0.4C38.9,344.8,34.3,338.8,33.9,336.7z"/>
	
		<radialGradient id="SVGID_8_" cx="2.4069" cy="512.6006" r="2.0002" gradientTransform="matrix(61.5998 0 0 103.408 -99.688 -52658.2227)" gradientUnits="userSpaceOnUse">
		<stop  offset="0" style="stop-color:#E21A8D"/>
		<stop  offset="0.25" style="stop-color:#DF1A8D"/>
		<stop  offset="0.44" style="stop-color:#D51C8C"/>
		<stop  offset="0.6" style="stop-color:#C51E8A"/>
		<stop  offset="0.76" style="stop-color:#AF2187"/>
		<stop  offset="0.89" style="stop-color:#952584"/>
		<stop  offset="1" style="stop-color:#952584"/>
	</radialGradient>
	<path class="st7" d="M34.9,255.8c-0.8,2.6,3,9,7,14.7c-2.4-2-5-3-7.4-1.4c-4,2.6,1.6,11.4,6.8,18.1c-3.6-3.4-7.6-5.8-9.4-1.8
		c-2,4.8,2,11.4,6,16.1c-3-2.4-6.6-4-9-0.4c-3.2,5,5,13.7,10.6,18.5c-4.2-3-9.6-6.2-9.4,0c0.4,7,8.2,12.8,12.2,15.1
		c-2-1.2-4.4-2-6.8-2c-1.4,0.2-2.2,1.4-1.6,4.2c2,9,69.7,80.3,81.9,72.5c12.6-8.2,0.4-49.8-27.3-93.2c-11.4-17.9-45-62.6-52.2-61.4
		C35.5,254.6,35.1,255.2,34.9,255.8z"/>
	
		<linearGradient id="SVGID_9_" gradientUnits="userSpaceOnUse" x1="26.4509" y1="516.5515" x2="28.4511" y2="516.5515" gradientTransform="matrix(10.1398 0.942 -0.501 19.0662 274.4401 -9425.6572)">
		<stop  offset="0" style="stop-color:#B1278F"/>
		<stop  offset="0.48" style="stop-color:#AF278E"/>
		<stop  offset="0.65" style="stop-color:#A8258A"/>
		<stop  offset="0.76" style="stop-color:#9E2383"/>
		<stop  offset="1" style="stop-color:#9E2383"/>
	</linearGradient>
	<path class="st8" d="M282.9,459.4c1,3.6,1.8,8,1.6,11.6c1.4-6.4,17.9-38.3,21.7-43.8C300.7,429.7,286.9,445,282.9,459.4z"/>
	
		<linearGradient id="SVGID_10_" gradientUnits="userSpaceOnUse" x1="8.5745" y1="514.6902" x2="10.5747" y2="514.6902" gradientTransform="matrix(31.0716 2.8818 -2.9606 30.2442 1526.2986 -15154.4082)">
		<stop  offset="0" style="stop-color:#EC178D"/>
		<stop  offset="0.47" style="stop-color:#EA178D"/>
		<stop  offset="0.64" style="stop-color:#E3188C"/>
		<stop  offset="0.76" style="stop-color:#D81A8A"/>
		<stop  offset="0.86" style="stop-color:#C71D88"/>
		<stop  offset="0.95" style="stop-color:#B12085"/>
		<stop  offset="1" style="stop-color:#9E2383"/>
	</linearGradient>
	<path class="st9" d="M334.1,407.4c0,0-27.7,9-41.6,21.7c-13.9,12.8-25.7,31.9-25.7,31.9s8-5.8,10.6-3.4c2.6,2.4,0.8,15.3,0.8,15.3
		s6.4-20.3,15.3-32.5c7.6-10.4,13-15.1,26.7-20.5c13.7-5.4,13.5-5,13.5-5L334.1,407.4z"/>
	
		<radialGradient id="SVGID_11_" cx="2.6796" cy="512.1044" r="2.0002" gradientTransform="matrix(139.5158 0 0 173.6084 125.8486 -88644.8125)" gradientUnits="userSpaceOnUse">
		<stop  offset="0" style="stop-color:#EC178D"/>
		<stop  offset="0.24" style="stop-color:#CB1C8C"/>
		<stop  offset="0.77" style="stop-color:#772888"/>
		<stop  offset="1" style="stop-color:#512E87"/>
	</radialGradient>
	<path class="st10" d="M260.2,494.7c3.6,0.2,7,0.2,10.6-0.2c14.9-0.4,29.7-2.2,44.2-5.2c87.3-19.5,203.2-153.6,159-225.5
		c-5-8.2-2.6-19.7,9.8-23.7c4.6-1.6,9.2-3.4,13.5-5.4c6.2-2.4,11-7.4,12.8-13.7c2.6-9,3.4-19.5-2.8-28.3c-4-5.6-6.4-6.8-13-9.8
		c-5.4-2.4-11-3.6-16.3-5.8c-0.6-0.2-1-0.4-1.6-0.8c-2.2,17.3-14.9,21.9-36.7,27.3c-0.6,3.2-1.4,6.4-2.4,9.6
		c-1.2,3.4-2.4,6.6-3.8,9.8c-1,2.6-1.6,5.6-2.8,8.2c-3.2,7-11.2,11.4-17.9,15.1c-7.2,4-15.1,7-21.3,12.2c-5.2,4.6-9.6,10-13.3,15.9
		c-7.4,11.4-12.4,24.3-14.9,37.7c-2.6,13.7-5,27.3-8,40.8c-2.4,11-5.2,20.9-11.8,30.1c-4.6,6.4-9.8,12.2-15.1,17.7
		c-4.4,4.4-9.2,8.4-13.3,13c-3,3.6-5.8,7.6-8.2,11.6c-4.2,6.8-9,13.4-13,20.3c-4.4,7.6-8.8,16.3-9.6,25.5c-3.6-0.6-7.4,0.2-10.2,2.6
		c-2,1.4-6,4.6-4.8,7.6c-2.6,0.8-5.4,1.4-8,2.2c-2.8,0.6-5,3-5.4,5.8c0.6,2,1.4,3.8,2.8,5.4C259.2,494.7,259.8,494.7,260.2,494.7z
		 M475.2,199.2c0.8-3.4,4.2-5.8,7.8-5.2c3.4,0.2,6.2,3,6,6.4v0.2c-0.8,3.4-4.2,5.8-7.8,5.2c-3.4-0.2-6.2-3-6-6.4
		C475.2,199.4,475.2,199.4,475.2,199.2z"/>
	
		<radialGradient id="SVGID_12_" cx="15.0507" cy="511.1967" r="2.0002" gradientTransform="matrix(24.0573 0 0 39.7876 114.0789 -20178.5977)" gradientUnits="userSpaceOnUse">
		<stop  offset="0" style="stop-color:#BA258E"/>
		<stop  offset="0.23" style="stop-color:#B5258D"/>
		<stop  offset="0.51" style="stop-color:#A5278B"/>
		<stop  offset="0.83" style="stop-color:#8B2987"/>
		<stop  offset="1" style="stop-color:#7A2A85"/>
	</radialGradient>
	<path class="st11" d="M474.6,175.1c-7-5.2-10.2-13.1-12.8-20.5c-2.2-6.6-3.8-13.4-5-20.1c-14.5-3.2-23.5,12.2-23.1,22.1
		s4,19.9,6.4,29.9c1.2,4.8,0.2,10.4-0.4,15.1C461.1,196.4,472.8,192,474.6,175.1z"/>
	
		<radialGradient id="SVGID_13_" cx="20.0526" cy="516.7786" r="2.0002" gradientTransform="matrix(16.5511 0 0 21.7264 83.899 -10795.5566)" gradientUnits="userSpaceOnUse">
		<stop  offset="0" style="stop-color:#E21A8D"/>
		<stop  offset="9.000000e-02" style="stop-color:#E21A8D"/>
		<stop  offset="1" style="stop-color:#952584"/>
	</radialGradient>
	<path class="st12" d="M414.4,404.6c-5.2,3.4-5.2-3-4.8-8.2c-1.4,7.2-4.8,18.5-10.8,18.3c-4.4-0.2-4.8-4-4.2-8
		c-2.2,5.8-5.8,12.8-11,13.1c-1.6,8.8-2,17.1,1.4,19.3s8-7.6,11.8-19.1c-1.2,7.2-1,13,2.4,13.9c5.6,1.4,12-16.1,16.1-30.7
		C415.2,404.2,414.8,404.4,414.4,404.6z"/>
	
		<radialGradient id="SVGID_14_" cx="31.3337" cy="517.418" r="2.0002" gradientTransform="matrix(10.067 0 0 19.6378 67.445 -9723.6035)" gradientUnits="userSpaceOnUse">
		<stop  offset="0" style="stop-color:#E21A8D"/>
		<stop  offset="9.000000e-02" style="stop-color:#E21A8D"/>
		<stop  offset="1" style="stop-color:#952584"/>
	</radialGradient>
	<path class="st13" d="M367.6,446.8c5,1.4,11-13,15.5-26.5c-3.4-0.2-3.4-4.6-2.2-9c-3.2,8-8,17.1-12.4,14.9
		c-0.2-0.2-0.4-0.2-0.6-0.4C364.8,435.9,363.2,445.6,367.6,446.8z"/>
	
		<radialGradient id="SVGID_15_" cx="30.8678" cy="516.0659" r="2.0002" gradientTransform="matrix(11.0771 0 0 21.9461 93.9301 -10922.5889)" gradientUnits="userSpaceOnUse">
		<stop  offset="0" style="stop-color:#E21A8D"/>
		<stop  offset="9.000000e-02" style="stop-color:#E21A8D"/>
		<stop  offset="1" style="stop-color:#952584"/>
	</radialGradient>
	<path class="st14" d="M427.6,392.8c-2,2-3.4,1.8-4.4,0.8c-1.2-2.2-1.8-4.4-1.8-7c0,4-0.8,11.8-4.8,16.1c-0.8,7-0.4,12.8,4.6,10.6
		c10.6-4.8,14.7-38.5,14.7-38.5h-0.4C432.2,384.5,429.2,391.2,427.6,392.8z"/>
	
		<radialGradient id="SVGID_16_" cx="5.5094" cy="512.8052" r="2.0002" gradientTransform="matrix(61.5998 0 0 92.7591 91.3843 -47193.3945)" gradientUnits="userSpaceOnUse">
		<stop  offset="0" style="stop-color:#E21A8D"/>
		<stop  offset="0.25" style="stop-color:#DF1A8D"/>
		<stop  offset="0.44" style="stop-color:#D51C8C"/>
		<stop  offset="0.6" style="stop-color:#C51E8A"/>
		<stop  offset="0.76" style="stop-color:#AF2187"/>
		<stop  offset="0.89" style="stop-color:#952584"/>
		<stop  offset="1" style="stop-color:#952584"/>
	</radialGradient>
	<path class="st15" d="M356.8,432.5c2.6-0.6,6.2-7.2,9.2-13.5c-0.6,3,0,5.8,2.4,7c4.4,2.2,9.2-7,12.4-14.9c-1.2,4.8-1.2,9.6,3.2,9
		c5.2-0.6,8.8-7.4,11-13.1c-0.6,3.8-0.2,7.8,4.2,8c6,0.2,9.4-11.2,10.8-18.3c-0.6,5.2-0.4,11.4,4.8,8.2c6-3.8,7-13.3,7-17.9
		c0,2.4,0.6,4.8,1.8,7c1,1,2.2,1.2,4.4-0.8c6.8-6.2,34.7-100.6,21.9-107.2c-13.3-6.8-43.2,24.7-67.1,70.3
		c-9.8,18.9-31.7,70.3-27.1,75.9C355.7,432.3,356.2,432.7,356.8,432.5z"/>
	
		<linearGradient id="SVGID_17_" gradientUnits="userSpaceOnUse" x1="5.0639" y1="518.6504" x2="7.0641" y2="518.6504" gradientTransform="matrix(-4.2542 -9.2529 52.119 -0.7553 -26607.8711 559.4182)">
		<stop  offset="0" style="stop-color:#B1278F"/>
		<stop  offset="0.48" style="stop-color:#AF278E"/>
		<stop  offset="0.65" style="stop-color:#A8258A"/>
		<stop  offset="0.76" style="stop-color:#9E2383"/>
		<stop  offset="1" style="stop-color:#9E2383"/>
	</linearGradient>
	<path class="st16" d="M412.6,116.1c2.6-2.6,6-5.6,9.2-7.2c-6.2,2-42,3.6-48.8,3.2C378,115.7,398.3,119.9,412.6,116.1z"/>
	
		<linearGradient id="SVGID_18_" gradientUnits="userSpaceOnUse" x1="0.57" y1="516.8669" x2="2.5702" y2="516.8669" gradientTransform="matrix(-13.0405 -28.3516 68.0759 -5.431 -34778.9453 2962.6682)">
		<stop  offset="0" style="stop-color:#EC178D"/>
		<stop  offset="0.47" style="stop-color:#EA178D"/>
		<stop  offset="0.64" style="stop-color:#E3188C"/>
		<stop  offset="0.76" style="stop-color:#D81A8A"/>
		<stop  offset="0.86" style="stop-color:#C71D88"/>
		<stop  offset="0.95" style="stop-color:#B12085"/>
		<stop  offset="1" style="stop-color:#9E2383"/>
	</linearGradient>
	<path class="st17" d="M341.9,97.8c0,0,21.7,19.5,39.6,25.3c18.1,5.8,40.4,6.4,40.4,6.4s-9-4.2-8.4-7.6s13-8.4,13-8.4
		s-20.9,4.8-35.7,3c-12.8-1.4-19.5-3.8-31.1-13c-11.6-9.2-11.2-9.4-11.2-9.4L341.9,97.8z"/>
	
		<radialGradient id="SVGID_19_" cx="1.3629" cy="509.709" r="2.0002" gradientTransform="matrix(139.5158 0 0 43.0149 -57.8164 -21897.5547)" gradientUnits="userSpaceOnUse">
		<stop  offset="0" style="stop-color:#EC178D"/>
		<stop  offset="0.24" style="stop-color:#CB1C8C"/>
		<stop  offset="0.77" style="stop-color:#772888"/>
		<stop  offset="1" style="stop-color:#512E87"/>
	</radialGradient>
	<path class="st18" d="M454.5,118.1c-1.6-3.2-3.4-6.2-5.6-9c-7.8-12.8-16.7-24.7-26.5-35.7C362,7.5,187.7-26,147.6,48.3
		c-4.6,8.6-15.7,12.2-25.3,3.4c-3.6-3.2-7.6-6.2-11.6-9c-5.2-4.2-12-5.8-18.3-4.2c-9.2,2.2-18.5,6.8-23.1,16.5c-3,6.2-2.6,9-2,15.9
		c0.6,5.8,2.4,11.4,3.2,17.1V90c16.1-6.8,26.5,2,42,18.1c3-1.2,6.2-2,9.4-2.6c3.4-0.8,7-1.2,10.4-1.8c2.8-0.4,5.6-1.4,8.4-1.8
		c7.6-0.6,15.5,4,22.1,8c7,4.2,13.5,9.6,21.3,12.2c6.6,2.2,13.5,3.4,20.5,3.6c13.5,0.6,27.3-1.4,40-6c13.1-4.6,26.1-9.4,39.5-13.5
		c10.8-3.4,20.5-6,31.9-4.8c7.8,0.8,15.5,2.4,23.1,4.4c6,1.6,11.8,3.8,17.7,5c4.6,0.8,9.4,1.4,14.1,1.4c8,0.2,15.9,1.2,24.1,1.2
		c8.8,0,18.5-0.6,26.9-4.6c1.2,3.4,3.8,6.2,7.4,7.6c2.2,1,7,3,9,0.2c2,2,3.8,4,5.8,5.8c2,2.2,5.2,2.8,7.8,1.8c1.4-1.4,2.6-3.2,3.2-5
		C454.9,118.9,454.7,118.5,454.5,118.1z M91.3,79.6c-3.4,1-7-0.8-8.4-4.2c-1.6-3-0.4-6.8,2.6-8.4c0,0,0.2,0,0.2-0.2
		c3.4-1,7,0.8,8.4,4.2c1.6,3,0.4,6.8-2.6,8.4C91.3,79.4,91.3,79.6,91.3,79.6z"/>
	
		<radialGradient id="SVGID_20_" cx="6.3431" cy="508.506" r="2.0002" gradientTransform="matrix(24.0573 0 0 18.1032 -95.3564 -9107.4844)" gradientUnits="userSpaceOnUse">
		<stop  offset="0" style="stop-color:#BA258E"/>
		<stop  offset="0.23" style="stop-color:#B5258D"/>
		<stop  offset="0.51" style="stop-color:#A5278B"/>
		<stop  offset="0.83" style="stop-color:#8B2987"/>
		<stop  offset="1" style="stop-color:#7A2A85"/>
	</radialGradient>
	<path class="st19" d="M70.5,92.2c-1.2,8.6-6.2,15.3-11.4,21.3c-4.6,5.2-9.6,10-14.9,14.3c4.6,14.1,22.3,14.1,30.7,9
		c8.4-5.2,15.3-13.3,22.7-20.3c3.6-3.4,9-5.4,13.3-7.4C95.6,93.4,86.1,85.4,70.5,92.2z"/>
	
		<radialGradient id="SVGID_21_" cx="17.2385" cy="498.595" r="2.0002" gradientTransform="matrix(16.5511 0 0 7.8313 37.3324 -3889.9702)" gradientUnits="userSpaceOnUse">
		<stop  offset="0" style="stop-color:#E21A8D"/>
		<stop  offset="9.000000e-02" style="stop-color:#E21A8D"/>
		<stop  offset="1" style="stop-color:#952584"/>
	</radialGradient>
	<path class="st20" d="M299.5,29.6c5.4,2.8,0,6-4.8,8.2c7-2.4,18.5-5.2,21.3,0.2c2,3.8-1.2,6.2-4.8,7.6c6-1,13.9-1.2,16.9,2.8
		c8.4-3,15.7-6.8,16.1-10.8c0.4-4-10.4-3.2-22.5-0.6c6.8-2.6,11.8-5.8,10.8-9.2c-1.6-5.6-19.9-2.2-34.7,1.4
		C298.7,29,299.1,29.2,299.5,29.6z"/>
	
		<radialGradient id="SVGID_22_" cx="29.3809" cy="486.4021" r="2.0002" gradientTransform="matrix(10.067 0 0 3.5946 47.79 -1707.847)" gradientUnits="userSpaceOnUse">
		<stop  offset="0" style="stop-color:#E21A8D"/>
		<stop  offset="9.000000e-02" style="stop-color:#E21A8D"/>
		<stop  offset="1" style="stop-color:#952584"/>
	</radialGradient>
	<path class="st21" d="M359.4,48.9c-1.4-5-16.7-3-30.7-0.2c1.6,3.2-2.2,5.2-6.8,6.6c8.4-1.2,18.7-1.6,18.9,3.2v0.8
		C351.3,56.9,360.6,53.5,359.4,48.9z"/>
	
		<radialGradient id="SVGID_23_" cx="24.1636" cy="484.8354" r="2.0002" gradientTransform="matrix(11.0771 0 0 3.9158 19.683 -1886.6516)" gradientUnits="userSpaceOnUse">
		<stop  offset="0" style="stop-color:#E21A8D"/>
		<stop  offset="9.000000e-02" style="stop-color:#E21A8D"/>
		<stop  offset="1" style="stop-color:#952584"/>
	</radialGradient>
	<path class="st22" d="M282.7,24c2.8,0.8,3.2,2,2.8,3.4c-1.2,2-3,3.8-5.2,5c3.6-2,10.6-5.2,16.5-3.8c6.4-2.8,11.2-6.2,6.8-9.2
		c-9.6-7-40.6,6.4-40.6,6.4l0.2,0.4C273.2,24.4,280.5,23.4,282.7,24z"/>
	
		<radialGradient id="SVGID_24_" cx="4.1617" cy="507.2974" r="2.0002" gradientTransform="matrix(61.5998 0 0 20.6022 8.3791 -10420.6025)" gradientUnits="userSpaceOnUse">
		<stop  offset="0" style="stop-color:#E21A8D"/>
		<stop  offset="0.25" style="stop-color:#DF1A8D"/>
		<stop  offset="0.44" style="stop-color:#D51C8C"/>
		<stop  offset="0.6" style="stop-color:#C51E8A"/>
		<stop  offset="0.76" style="stop-color:#AF2187"/>
		<stop  offset="0.89" style="stop-color:#952584"/>
		<stop  offset="1" style="stop-color:#952584"/>
	</radialGradient>
	<path class="st23" d="M352.3,65.5c-1.8-2-9.4-1.8-16.3-1.2c2.8-1,5-2.8,5-5.6c-0.2-4.8-10.6-4.4-18.9-3.2c4.8-1.4,9-3.8,6.4-7.2
		c-3-4.2-10.8-3.8-16.9-2.8c3.6-1.4,6.8-3.8,4.8-7.6c-2.8-5.4-14.3-2.4-21.3-0.2c4.8-2,10.2-5.4,4.8-8.2c-6.4-3.2-14.9,0.6-19.1,3
		c2.2-1.2,3.8-2.8,5.2-5c0.4-1.4-0.2-2.6-2.8-3.4c-8.8-2.8-104.4,20.3-103.6,34.7c0.8,14.9,43,25.1,94.4,22.9
		c21.3-1,76.7-7.6,79.3-14.5C352.9,66.5,352.7,65.9,352.3,65.5z"/>
</g>
</svg>
